/* XPM */
static char * last_node_guide_xpm[] = {
"16 21 2 1",
" 	c None",
".	c #ADA5C6",
"     .          ",
"     .          ",
"     .          ",
"     .          ",
"     .          ",
"     .          ",
"     .          ",
"     .          ",
"     .          ",
"     .          ",
"     ...........",
"                ",
"                ",
"                ",
"                ",
"                ",
"                ",
"                ",
"                ",
"                ",
"                "};
