/* XPM */
static char * node_guide_xpm[] = {
"16 22 2 1",
" 	c None",
".	c #ADA5C6",
"                ",
"     .          ",
"                ",
"     .          ",
"                ",
"     .          ",
"                ",
"     .          ",
"                ",
"     .          ",
"                ",
"     . . . . . .",
"                ",
"     .          ",
"                ",
"     .          ",
"                ",
"     .          ",
"                ",
"     .          ",
"                ",
"     .          "};
